<svg xmlns="http://www.w3.org/2000/svg" width="120" height="120"><g transform="translate(1.82 -2.372)"><rect width="48.814" height="78.982" x="33.773" y="22.881" ry="24.407" style="fill:#fc0;stroke:#2b1100;stroke-width:4.5;stroke-dasharray:none"/><rect width="47.04" height="9.851" x="34.66" y="45.231" ry="0" style="fill:#2b1100;stroke:none;stroke-width:0;stroke-dasharray:none"/><rect width="47.04" height="9.851" x="34.66" y="74.361" ry="0" style="fill:#2b1100;stroke:none;stroke-width:0;stroke-dasharray:none"/><rect width="47.04" height="9.851" x="34.66" y="59.536" ry="0" style="fill:#2b1100;stroke:none;stroke-width:0;stroke-dasharray:none"/><path d="M51.758 33.422a2.47 2.861 0 0 1-2.464 2.86 2.47 2.861 0 0 1-2.478-2.845 2.47 2.861 0 0 1 2.45-2.876 2.47 2.861 0 0 1 2.492 2.829l-2.471.032zM67.883 33.422a2.47 2.861 0 0 1-2.464 2.86 2.47 2.861 0 0 1-2.477-2.845 2.47 2.861 0 0 1 2.45-2.876 2.47 2.861 0 0 1 2.491 2.829l-2.47.032z" style="fill:#2b1100;fill-opacity:1;stroke:none;stroke-width:1;stroke-dasharray:none" transform="translate(.83)"/><path d="M81.647 64.552c4.338 7.027 9.795 14.788 17.684 14.788 7.889 0 14.283-6.62 14.283-14.788s-6.394-14.789-14.283-14.789c-7.889 0-12.79 6.861-17.684 14.789zM34.127 64.552c-4.338 7.027-9.796 14.788-17.684 14.788-7.889 0-14.284-6.62-14.284-14.788s6.395-14.789 14.284-14.789c7.888 0 12.79 6.861 17.684 14.789z" style="fill:#afdde9;stroke:#5fbcd3;stroke-width:1.82729;stroke-dasharray:none" transform="translate(.293)"/></g></svg>